<?xml version="1.0" encoding="utf-8"?>
<!-- Uploaded to: SVG Repo, www.svgrepo.com, Generator: SVG Repo Mixer Tools -->
<svg fill="#000000" height="800px" width="800px" version="1.2" baseProfile="tiny" id="Layer_1" xmlns="http://www.w3.org/2000/svg" xmlns:xlink="http://www.w3.org/1999/xlink"
	  viewBox="-77 79 100 100" xml:space="preserve">
<path d="M-35.2,158.7c0-0.3,0.2-0.5,0.5-0.5h22.1c0.3,0,0.5,0.2,0.5,0.5s-0.2,0.5-0.5,0.5h-22.1C-35,159.2-35.2,159-35.2,158.7z
	 M3,161.8c-0.3,0-0.5,0.2-0.5,0.5s0.2,0.5,0.5,0.5h11c0.3,0,0.5-0.2,0.5-0.5s-0.2-0.5-0.5-0.5H3z M-70.7,135.6h-6.4V131h1.7v-17.3
	c-0.5,1-1.1,2-1.7,3v-4.5c5.6-10.8,8.1-23,8.3-23.8v0h0c0,0,0,0,0,0l0,0h2.6v0c0.2,0.5,16.5,40.5,38.9,41.1c0.2,0,0.4,0,0.5,0
	c13.3,0,26.3-13.8,38.6-41.1v0h0c0,0,0,0,0,0l0,0l2.6,0v0.1c0.2,1,2.8,13.3,8.5,24.1v4.5c-0.6-1-1.1-1.9-1.7-2.9v17H23v4.6h-6.6
	v17.2h3v3.5H6.9v-3.5H10v-17.2h-74.3v17.2h3.3v3.5h-12.6v-3.5h2.8V135.6z M14.5,97l0,7.7h0.8v12.6h1V131h3.7v-19.4c0,0,0,0,0,0
	C17.6,106.4,15.8,101.2,14.5,97z M6.3,131H10v-13.6h1v-12.6h0.8V93.4c-1.9,3.9-3.7,7.5-5.6,10.8c0,0,0,0,0,0c0,0,0,0,0,0V131z
	 M0.4,113.5C0.4,113.5,0.4,113.5,0.4,113.5C0.4,113.5,0.4,113.5,0.4,113.5l0,17.5H5v-24.6c0,0,0,0,0,0C3.5,109,1.9,111.3,0.4,113.5z
	 M-5.5,131h4.6v-15.8c-1.5,2-3.1,3.9-4.6,5.5V131z M-11.3,131h4.6v-9c-1.5,1.5-3.1,2.9-4.6,4.1V131z M-17.4,129.8l0.1,1.2h4.8v-4
	C-14.2,128.2-15.8,129.1-17.4,129.8z M-41.5,131h5.4l0.1-1.2c-2.8-1.2-2.6-1.1-5.5-3.1V131z M-47.3,131h4.6v-5.2
	c-1.5-1.2-3.1-2.5-4.6-4V131z M-53.2,131h4.6v-10.5c-1.5-1.6-3.1-3.4-4.6-5.3c0,0,0,0,0,0V131z M-59.1,131h4.6v-17.5
	c-0.8-1-1.5-2.1-2.3-3.2c-0.8-1.2-1.6-2.4-2.3-3.6V131z M-66.1,104.7h0.8v12.6h1V131h3.9v-26.4c-2.5-4.3-4.5-8.2-5.8-11V104.7z
	 M-70.7,131v-13.6h1v-12.6h0.8v-7.8c-1.2,4.1-2.9,9.2-5.4,14.2V131H-70.7z M-8.5,166c0-0.3-0.2-0.5-0.5-0.5h-15.1
	c-0.3,0-0.5,0.2-0.5,0.5s0.2,0.5,0.5,0.5H-9C-8.8,166.5-8.5,166.3-8.5,166z M-30.2,161.8h-14.4c-0.3,0-0.5,0.2-0.5,0.5
	s0.2,0.5,0.5,0.5h14.4c0.3,0,0.5-0.2,0.5-0.5S-29.9,161.8-30.2,161.8z M-29.3,175h-20.9c-0.3,0-0.5,0.2-0.5,0.5s0.2,0.5,0.5,0.5
	h20.9c0.3,0,0.5-0.2,0.5-0.5S-29,175-29.3,175z M-38.2,169.5c0-0.3-0.2-0.5-0.5-0.5h-19c-0.3,0-0.5,0.2-0.5,0.5s0.2,0.5,0.5,0.5h19
	C-38.4,170-38.2,169.7-38.2,169.5z M6.9,175h-20.6c-0.3,0-0.5,0.2-0.5,0.5s0.2,0.5,0.5,0.5H6.9c0.3,0,0.5-0.2,0.5-0.5
	S7.2,175,6.9,175z M22.5,158.2h-6.7c-0.3,0-0.5,0.2-0.5,0.5s0.2,0.5,0.5,0.5h6.7c0.3,0,0.5-0.2,0.5-0.5S22.8,158.2,22.5,158.2z
	 M9.8,169H-6.1c-0.3,0-0.5,0.2-0.5,0.5s0.2,0.5,0.5,0.5H9.8c0.3,0,0.5-0.2,0.5-0.5S10,169,9.8,169z M22,165.5h-8.9
	c-0.3,0-0.5,0.2-0.5,0.5s0.2,0.5,0.5,0.5H22c0.3,0,0.5-0.2,0.5-0.5S22.3,165.5,22,165.5z M-62.8,175h-10.9c-0.3,0-0.5,0.2-0.5,0.5
	s0.2,0.5,0.5,0.5h10.9c0.3,0,0.5-0.2,0.5-0.5S-62.5,175-62.8,175z M-27.4,154.5c0-0.3-0.2-0.5-0.5-0.5h-13.5c-0.3,0-0.5,0.2-0.5,0.5
	s0.2,0.5,0.5,0.5h13.5C-27.7,155-27.4,154.8-27.4,154.5z M0,154.5c0-0.3-0.2-0.5-0.5-0.5h-16.9c-0.3,0-0.5,0.2-0.5,0.5
	s0.2,0.5,0.5,0.5h16.9C-0.2,155,0,154.8,0,154.5z M-61.6,159.2c0.3,0,0.5-0.2,0.5-0.5s-0.2-0.5-0.5-0.5h-12.5
	c-0.3,0-0.5,0.2-0.5,0.5s0.2,0.5,0.5,0.5H-61.6z M-76.3,162.3c0,0.3,0.2,0.5,0.5,0.5h9.7c0.3,0,0.5-0.2,0.5-0.5s-0.2-0.5-0.5-0.5
	h-9.7C-76.1,161.8-76.3,162-76.3,162.3z M-44.5,158.7c0-0.3-0.2-0.5-0.5-0.5h-10.7c-0.3,0-0.5,0.2-0.5,0.5s0.2,0.5,0.5,0.5H-45
	C-44.8,159.2-44.5,159-44.5,158.7z M-48.9,155c0.3,0,0.5-0.2,0.5-0.5s-0.2-0.5-0.5-0.5h-7.9c-0.3,0-0.5,0.2-0.5,0.5s0.2,0.5,0.5,0.5
	H-48.9z M-65.3,166.5h14.9c0.3,0,0.5-0.2,0.5-0.5s-0.2-0.5-0.5-0.5h-14.9c-0.3,0-0.5,0.2-0.5,0.5S-65.6,166.5-65.3,166.5z"/>
</svg>